General
Unique ID                                : 313386245685641295493590840453668430320 (0xEBC3FED7494664A937F8E00C2ECA61F0)
Complete name                            : Aimyon - Kimi no Yume wo Kikinagara, Boku wa Waraeru Idea wo! [WEB-DL 2K AAC x265-SEKAI].mkv
Format                                   : Matroska
Format version                           : Version 4
File size                                : 290 MiB
Duration                                 : 3 min 21 s
Overall bit rate                         : 12.1 Mb/s
Frame rate                               : 23.976 FPS
Title                                    : Aimyon - Kimi no Yume wo Kikinagara, Boku wa Waraeru Idea wo! [WEB-DL 2K AAC x265-SEKAI]
Encoded date                             : 2025-08-11 07:23:29 UTC
Writing application                      : mkvmerge 94.0 ('Initiate') 64-bit
Writing library                          : libebml v1.4.5 + libmatroska v1.7.1
Website                                  : https://sekai-archivist.blogspot.com/

Video
ID                                       : 1
Format                                   : HEVC
Format/Info                              : High Efficiency Video Coding
Format profile                           : Main 10@L5@High
Codec ID                                 : V_MPEGH/ISO/HEVC
Duration                                 : 3 min 21 s
Bit rate                                 : 11.8 Mb/s
Width                                    : 2 560 pixels
Height                                   : 1 440 pixels
Display aspect ratio                     : 16:9
Frame rate mode                          : Constant
Frame rate                               : 23.976 (23976/1000) FPS
Color space                              : YUV
Chroma subsampling                       : 4:2:0
Bit depth                                : 10 bits
Bits/(Pixel*Frame)                       : 0.134
Stream size                              : 284 MiB (98%)
Language                                 : Japanese
Default                                  : Yes
Forced                                   : No
Color range                              : Limited
Color primaries                          : BT.709
Transfer characteristics                 : BT.709
Matrix coefficients                      : BT.709

Audio
ID                                       : 2
Format                                   : AAC LC
Format/Info                              : Advanced Audio Codec Low Complexity
Codec ID                                 : A_AAC-2
Duration                                 : 3 min 21 s
Bit rate                                 : 265 kb/s
Channel(s)                               : 2 channels
Channel layout                           : L R
Sampling rate                            : 48.0 kHz
Frame rate                               : 46.875 FPS (1024 SPF)
Compression mode                         : Lossy
Stream size                              : 6.35 MiB (2%)
Language                                 : Japanese
Default                                  : Yes
Forced                                   : No


